<svg width="22" height="16" viewBox="0 0 22 16" fill="none" xmlns="http://www.w3.org/2000/svg">
<g clip-path="url(#clip0_60_766)">
<rect width="22" height="16" rx="2" fill="white"/>
<path fill-rule="evenodd" clip-rule="evenodd" d="M14.6666 8.00002C14.6666 10.0619 13.025 11.7334 10.9999 11.7334C8.97487 11.7334 7.33325 10.0619 7.33325 8.00002C7.33325 6.80536 9.79516 6.30402 11.8673 6.49282C12.0873 6.43309 12.3241 6.40002 12.5713 6.40002C13.729 6.40002 14.6666 7.11682 14.6666 8.00002Z" fill="#232C80"/>
<path fill-rule="evenodd" clip-rule="evenodd" d="M10.4761 7.46666C10.4761 7.46666 11.4137 6.4 12.5713 6.4C13.729 6.4 14.6666 7.1168 14.6666 8C14.6666 5.93813 13.025 4.26666 10.9999 4.26666C9.5364 4.26666 8.27297 5.1392 7.68525 6.40213C7.33325 7.46666 7.33325 7.77813 7.33325 8C7.85706 8.53333 8.43954 8.53333 8.90468 8.53333C9.36982 8.53333 9.78782 8.32746 10.0759 8L10.4761 7.46666Z" fill="#F93939"/>
<path fill-rule="evenodd" clip-rule="evenodd" d="M15.7142 5.33335H17.8095L15.7142 3.20001H14.6666L15.7142 5.33335ZM6.28567 5.33335H4.19043L6.28567 3.20001H7.33329L6.28567 5.33335ZM15.7142 10.6667H17.8095L15.7142 12.8H14.6666L15.7142 10.6667ZM6.28567 10.6667H4.19043L6.28567 12.8H7.33329L6.28567 10.6667Z" fill="#151515"/>
</g>
<defs>
<clipPath id="clip0_60_766">
<rect width="22" height="16" fill="white"/>
</clipPath>
</defs>
</svg>
